<svg xmlns="http://www.w3.org/2000/svg" viewBox="0 0 320 150">
  <!-- Lake and mountain icon -->
  <path d="M30,110 C35,95 45,90 50,85 C55,90 65,95 70,110 Z" fill="#0A7B9E" stroke="#0A7B9E" stroke-width="2"/>
  <path d="M20,110 L80,110 L80,120 C65,115 35,115 20,120 Z" fill="#0A7B9E" stroke="#0A7B9E" stroke-width="2"/>
  
  <!-- Wavy line representing water -->
  <path d="M20,90 C25,87 30,93 35,90 C40,87 45,93 50,90 C55,87 60,93 65,90 C70,87 75,93 80,90" fill="none" stroke="#0A7B9E" stroke-width="2"/>
  
  <!-- Palm tree -->
  <path d="M55,80 L58,60 L61,80 Z" fill="#29574C" stroke="#29574C" stroke-width="1"/>
  <path d="M50,65 C50,60 54,55 58,58 C62,55 66,60 66,65 C66,70 62,65 58,65 C54,65 50,70 50,65 Z" fill="#29574C" stroke="#29574C" stroke-width="1"/>
  
  <!-- Logo text -->
  <text x="95" y="100" font-family="Arial, sans-serif" font-size="45" font-weight="bold" fill="#333333">LAKESIDE</text>
  
  <!-- Tagline -->
  <text x="100" y="125" font-family="Arial, sans-serif" font-size="18" fill="#0A7B9E">RESORTS &amp; SPA</text>
</svg>